<?xml version="1.0" encoding="utf-8"?>
<!-- Generator: Adobe Illustrator 27.4.0, SVG Export Plug-In . SVG Version: 6.00 Build 0)  -->
<svg version="1.1" id="Layer_1" xmlns="http://www.w3.org/2000/svg" xmlns:xlink="http://www.w3.org/1999/xlink" x="0px" y="0px"
	 viewBox="0 0 930.8 148.3" style="enable-background:new 0 0 930.8 148.3;" xml:space="preserve">
<style type="text/css">
	.st0{fill:#010202;stroke:#010202;stroke-width:1.6;stroke-miterlimit:10;}
	.st1{fill:none;stroke:#010202;stroke-width:1.6;}
</style>
<path class="st0" d="M47.4,45.6h30.3l24.2,31.1l24.3-31.1h30.3v62.1h-24.2V74.6L108,107.7H95.9L71.6,74.6v33.2H47.4V45.6z"/>
<path class="st0" d="M331.4,45.7c17.1-0.2,29.7,14.1,29.6,31.1c0.1,16.9-12.5,31.3-29.6,31.1h-55.3V45.7H331.4z M326.9,65.4h-26.5
	v22.7h26.5c6.3,0,9.8-5.1,9.8-11.4C336.7,70.5,333.1,65.4,326.9,65.4z"/>
<path class="st0" d="M377.6,45.7h72.7v15.9h-48.5v8h48.5v14.4h-48.5v8h48.5v16h-72.7V45.7z"/>
<path class="st0" d="M496.9,45.6V88h48.5v19.7h-72.7V45.6H496.9z"/>
<path class="st1" d="M652.7,45.7H680l-27.3,62.1h-28.8l-13.6-31.1l-13.6,31.1h-28.8l-27.3-62.1h27.3L582.2,85l14.4-39.3h27.3
	L638.3,85L652.7,45.7z"/>
<path class="st1" d="M715.6,45.6v62.1h-24.2V45.6H715.6z"/>
<path class="st1" d="M774.2,69.6c17.3,0.9,41.7,2.1,41.7,17.7c0,17.8-20.3,22-42.2,22c-21.8,0-39.9-2.7-42.2-22h25.4
	c2.8,4.8,9.2,6.1,16.8,6.1c7.5,0,16.8-1.2,16.8-6.1c0-2.7-7.5-3.1-17.3-3.6c-17.3-0.9-41.7-2.1-41.7-17.6c0-17.8,20.3-22,42.2-22
	c21.8,0.1,39.9,2.6,42.2,22h-25.4c-2.8-4.9-9.2-6.1-16.8-6.1c-7.5,0-16.8,1.1-16.8,6.1C756.9,68.8,764.5,69.2,774.2,69.6z"/>
<path class="st1" d="M831.9,45.7h72.7v15.9h-48.5v8h48.5v14.4h-48.5v8h48.5v16h-72.7V45.7z"/>
<path class="st0" d="M255.3,51c-6.6-4.5-15-6.8-25-6.8c-2.7,0-5.5,0.2-8.3,0.5c-12.1,1.4-23.3,5.6-33.1,12.3
	c-9.8,6.8-15.9,14.4-17.9,22.7c-0.5,2-0.8,3.9-0.8,5.7c0,6.8,3.3,12.6,10,17.2c6.6,4.5,15,6.8,25,6.8c2.7,0,5.4-0.2,8.2-0.5
	c12.2-1.4,23.4-5.5,33.2-12.3c9.8-6.7,15.8-14.4,17.9-22.7c0.5-2,0.8-3.9,0.8-5.7C265.2,61.3,261.9,55.5,255.3,51z M232.7,72.4
	c-0.7,2.6-2,5.1-3.8,7.6c-1.9,2.5-4.3,4.8-7,6.7l0,0c-2.6,1.8-5.3,3.2-8.1,4.2l-0.1,0c-2.2,0.8-4.3,1.2-6.1,1.2
	c-1.7,0-2.6-0.2-3.1-0.4l-0.3-0.1c0,0-0.1,0-0.2-0.1c-0.7-0.4-1.2-0.8-1.7-1.5c-0.7-1-1.2-2.2-1.4-3.6c-0.3-1.7-0.1-3.5,0.4-5.5
	c0.6-2.1,1.6-4.2,3-6.3c1.5-2.1,3.3-4.1,5.4-5.9c2.1-1.8,4.3-3.2,6.6-4.3l0,0c2.1-1.1,4.3-1.8,6.4-2.3c1.6-0.4,3.2-0.5,4.6-0.5
	c0.8,0.1,1.5,0.2,2.1,0.4c0.6,0.3,1.2,0.6,1.7,1.2c0.7,0.8,1.3,1.9,1.6,3.1C233.4,68,233.3,70.1,232.7,72.4z"/>
</svg>
